<svg xmlns="http://www.w3.org/2000/svg" version="1.1" xmlns:xlink="http://www.w3.org/1999/xlink" xmlns:svgjs="http://svgjs.dev/svgjs" width="656.5" height="890.5"><svg id="SvgjsSvg1589" xmlns="http://www.w3.org/2000/svg" version="1.1" viewBox="0 0 656.5 890.5">
  <!-- Generator: Adobe Illustrator 29.1.0, SVG Export Plug-In . SVG Version: 2.1.0 Build 142)  -->
  <defs>
    <style>
      .st0 {
        fill: #d9d9d9;
      }
    </style>
  </defs>
  <g id="SvgjsG1588">
    <path class="st0" d="M334.6,634.9c-58,54.4-118.2,107.1-172.4,165.6-15.1,6.5-31.3,4-47.3,7.5-36.8,8.1-49.3,31.5-72.8,56.2-7,7.3-30.3,35.2-39.5,23.3-12.5-16.1,25.5-40.4,35.5-49.9,14.7-14,26.5-28.5,32.2-48.4,3.9-13.6,3.2-31.8,6.9-43.1,1.8-5.4,36.6-57.3,40.8-60.8,7.9-6.6,44.6-19.5,56.9-25.4,179.1-84.7,303-172.4,386.9-358.5,21.8-48.3,58.3-144.8,63.8-195.9,2.2-20.2-9.1-23-16.9-5.6-15.1,33.7-25.1,74.8-39.9,110.1-46.4,110.7-112.7,212.7-202.4,292.9-68.7,61.3-145,112.9-229.9,149.2-4.1,1.3,9.9-18.4,10.8-19.9,48.4-83.6,85.4-173.2,131.2-257.6,41.5-76.6,123.1-132.9,188-191.1,61.7-55.3,120.6-114.1,187.1-163.8,8.2,49.5-5.5,102.4-18.2,150.4-31,117.5-86.2,234.4-164.1,327.9-41.6,49.8-89.4,92.7-136.5,136.9h0s0,0,0,0Z"></path>
  </g>
  <g id="SvgjsG1587">
    <path class="st0" d="M654.2,35.3c-1.3-9.9-269.7,219-269.7,219L654.2,0c4,17.3,2,73.6,0,35.3h0Z"></path>
    <path class="st0" d="M459.3,395.4s127.9-174.2,164.6-306.9c36.8-132.7-164.6,306.9-164.6,306.9h0Z"></path>
  </g>
</svg><style>@media (prefers-color-scheme: light) { :root { filter: contrast(1) brightness(0.9); } }
@media (prefers-color-scheme: dark) { :root { filter: none; } }
</style></svg>
